<?xml version="1.0"?>
<svg xmlns="http://www.w3.org/2000/svg" xmlns:xlink="http://www.w3.org/1999/xlink" width="1600" zoomAndPan="magnify" viewBox="0 0 1200 1199.999942" height="1600" preserveAspectRatio="xMidYMid meet" version="1.0" style="background-color:transparent;">
  <defs>
    <g/>
    <clipPath id="e5d538eb78">
      <path d="M 126 144 L 959.984375 144 L 959.984375 602 L 126 602 Z M 126 144 " clip-rule="nonzero"/>
    </clipPath>
    <clipPath id="35617184ba">
      <path d="M 98 79 L 767 79 L 767 774.785156 L 98 774.785156 Z M 98 79 " clip-rule="nonzero"/>
    </clipPath>
    <clipPath id="98e0f1e67b">
      <path d="M 806 133 L 891 133 L 891 273 L 806 273 Z M 806 133 " clip-rule="nonzero"/>
    </clipPath>
    <clipPath id="f17f7ad67b">
      <path d="M 783.984375 256.113281 L 867.988281 131.988281 L 906.46875 158.027344 L 822.464844 282.15625 Z M 783.984375 256.113281 " clip-rule="nonzero"/>
    </clipPath>
    <clipPath id="e84300ac88">
      <path d="M 783.984375 256.113281 L 867.988281 131.988281 L 906.46875 158.027344 L 822.464844 282.15625 Z M 783.984375 256.113281 " clip-rule="nonzero"/>
    </clipPath>
    <clipPath id="9e262ce260">
      <path d="M 426 710 L 501 710 L 501 814 L 426 814 Z M 426 710 " clip-rule="nonzero"/>
    </clipPath>
    <clipPath id="1258d3ed9f">
      <path d="M 448.246094 700.238281 L 501.539062 807.648438 L 467.972656 824.300781 L 414.679688 716.890625 Z M 448.246094 700.238281 " clip-rule="nonzero"/>
    </clipPath>
    <clipPath id="33095e2636">
      <path d="M 448.246094 700.238281 L 501.539062 807.648438 L 467.972656 824.300781 L 414.679688 716.890625 Z M 448.246094 700.238281 " clip-rule="nonzero"/>
    </clipPath>
    <clipPath id="9790b31465">
      <path d="M 575 756 L 739 756 L 739 856.238281 L 575 856.238281 Z M 575 756 " clip-rule="nonzero"/>
    </clipPath>
    <clipPath id="fb2284d5c7">
      <rect x="0" width="164" y="0" height="101"/>
    </clipPath>
    <clipPath id="67c89df4ae">
      <rect x="0" width="960" y="0" height="857"/>
    </clipPath>
  </defs>
  <rect x="-120" width="1440" fill="none" y="-119.999994" height="1439.999931" fill-opacity="1"/>
  <rect x="-120" width="1440" fill="none" y="-119.999994" height="1439.999931" fill-opacity="1"/>
  <g transform="matrix(1, 0, 0, 1, 120, 176)">
    <g clip-path="url(#67c89df4ae)">
      <g clip-path="url(#e5d538eb78)">
        <path fill="#8ac0c8" d="M 304.183594 144.433594 L 243.425781 144.433594 L 243.425781 168.316406 L 304.183594 168.316406 Z M 324.578125 198.527344 L 126.707031 198.527344 L 126.707031 222.421875 L 324.578125 222.421875 Z M 594.3125 252.625 L 498.875 252.625 L 498.875 276.523438 L 594.3125 276.523438 Z M 253.257812 306.734375 L 126.707031 306.734375 L 126.707031 330.621094 L 253.257812 330.621094 Z M 401.089844 360.832031 L 126.707031 360.832031 L 126.707031 384.710938 L 401.089844 384.710938 Z M 578 384.710938 L 852.375 384.710938 L 852.375 360.832031 L 578 360.832031 Z M 780.273438 523.121094 L 780.273438 547.011719 L 959.996094 547.011719 L 959.996094 523.121094 Z M 330.308594 547.011719 L 756.390625 547.011719 L 756.390625 523.121094 L 330.308594 523.121094 Z M 126.707031 601.109375 L 302.535156 601.109375 L 302.535156 577.222656 L 126.707031 577.222656 L 126.707031 601.109375 " fill-opacity="1" fill-rule="nonzero"/>
      </g>
      <path fill="#5170ff" d="M 677.316406 198.527344 L 479.457031 198.527344 L 479.457031 222.421875 L 677.316406 222.421875 Z M 474.988281 252.625 L 126.707031 252.625 L 126.707031 276.523438 L 474.988281 276.523438 Z M 421.074219 438.8125 L 660.441406 438.8125 L 660.441406 414.929688 L 421.074219 414.929688 Z M 306.414062 523.121094 L 126.707031 523.121094 L 126.707031 547.011719 L 306.414062 547.011719 Z M 642.835938 577.222656 L 642.835938 601.109375 L 694.183594 601.109375 L 694.183594 577.222656 Z M 236.941406 655.207031 L 644.890625 655.207031 L 644.890625 631.320312 L 236.941406 631.320312 L 236.941406 655.207031 " fill-opacity="1" fill-rule="nonzero"/>
      <path fill="#cb6ce6" d="M 0 114.230469 L 23.886719 114.230469 L 23.886719 90.335938 L 0 90.335938 Z M 0 168.316406 L 23.886719 168.316406 L 23.886719 144.433594 L 0 144.433594 Z M 455.5625 198.527344 L 348.460938 198.527344 L 348.460938 222.421875 L 455.5625 222.421875 Z M 0 222.421875 L 23.886719 222.421875 L 23.886719 198.527344 L 0 198.527344 Z M 0 276.523438 L 23.886719 276.523438 L 23.886719 252.625 L 0 252.625 Z M 539.847656 306.734375 L 277.136719 306.734375 L 277.136719 330.621094 L 539.847656 330.621094 Z M 0 330.621094 L 23.886719 330.621094 L 23.886719 306.734375 L 0 306.734375 Z M 0 384.710938 L 23.886719 384.710938 L 23.886719 360.832031 L 0 360.832031 Z M 397.195312 414.929688 L 126.707031 414.929688 L 126.707031 438.8125 L 397.195312 438.8125 Z M 0 438.8125 L 23.886719 438.8125 L 23.886719 414.929688 L 0 414.929688 Z M 0 492.902344 L 23.886719 492.902344 L 23.886719 469.023438 L 0 469.023438 Z M 0 547.011719 L 23.886719 547.011719 L 23.886719 523.121094 L 0 523.121094 Z M 326.414062 577.222656 L 326.414062 601.109375 L 618.957031 601.109375 L 618.957031 577.222656 Z M 0 601.109375 L 23.886719 601.109375 L 23.886719 577.222656 L 0 577.222656 Z M 126.707031 655.207031 L 213.046875 655.207031 L 213.046875 631.320312 L 126.707031 631.320312 Z M 0 655.207031 L 23.886719 655.207031 L 23.886719 631.320312 L 0 631.320312 Z M 0 709.300781 L 23.886719 709.300781 L 23.886719 685.417969 L 0 685.417969 Z M 65.234375 772.839844 L 76.90625 772.839844 L 76.90625 70.027344 L 65.234375 70.027344 L 65.234375 772.839844 " fill-opacity="1" fill-rule="nonzero"/>
      <g clip-path="url(#35617184ba)">
        <path fill="#8c52ff" d="M 219.539062 144.433594 L 98.027344 144.433594 L 98.027344 168.316406 L 219.539062 168.316406 Z M 618.191406 252.625 L 618.191406 276.523438 L 766.789062 276.523438 L 766.789062 252.625 Z M 424.960938 384.710938 L 554.117188 384.710938 L 554.117188 360.832031 L 424.960938 360.832031 Z M 98.027344 492.902344 L 231.210938 492.902344 L 231.210938 469.023438 L 98.027344 469.023438 Z M 183.238281 685.417969 L 98.027344 685.417969 L 98.027344 709.300781 L 183.238281 709.300781 Z M 173.628906 125.191406 C 174.628906 125.191406 175.625 124.824219 176.378906 124.0625 L 212.113281 88.332031 C 213.628906 86.820312 213.628906 84.34375 212.113281 82.835938 C 210.59375 81.308594 208.132812 81.308594 206.601562 82.835938 L 170.878906 118.558594 C 169.359375 120.082031 169.359375 122.542969 170.878906 124.0625 C 171.640625 124.824219 172.632812 125.191406 173.628906 125.191406 Z M 143.953125 126.1875 C 144.707031 126.957031 145.699219 127.332031 146.699219 127.332031 C 147.6875 127.332031 148.6875 126.957031 149.449219 126.1875 C 150.976562 124.671875 150.976562 122.210938 149.457031 120.691406 L 132.207031 103.445312 L 149.449219 86.203125 C 150.964844 84.675781 150.964844 82.21875 149.449219 80.699219 C 147.9375 79.175781 145.464844 79.175781 143.953125 80.699219 L 123.945312 100.691406 C 122.433594 102.210938 122.433594 104.667969 123.945312 106.195312 Z M 240.105469 80.699219 C 238.582031 79.175781 236.121094 79.175781 234.605469 80.699219 C 233.09375 82.21875 233.09375 84.6875 234.605469 86.210938 L 234.605469 86.1875 L 251.851562 103.429688 L 234.605469 120.691406 C 233.09375 122.203125 233.09375 124.671875 234.605469 126.203125 C 235.367188 126.960938 236.371094 127.332031 237.355469 127.332031 C 238.351562 127.332031 239.351562 126.960938 240.105469 126.203125 L 260.105469 106.195312 C 260.84375 105.457031 261.242188 104.484375 261.242188 103.445312 C 261.242188 102.390625 260.84375 101.421875 260.105469 100.683594 Z M 240.121094 728.148438 C 238.582031 726.613281 236.121094 726.613281 234.605469 728.148438 C 233.09375 729.65625 233.09375 732.132812 234.605469 733.648438 L 251.851562 750.890625 L 234.605469 768.132812 C 233.078125 769.648438 233.078125 772.117188 234.605469 773.640625 C 235.367188 774.398438 236.355469 774.785156 237.355469 774.785156 C 238.351562 774.785156 239.351562 774.398438 240.121094 773.640625 L 260.105469 753.640625 C 260.84375 752.902344 261.242188 751.921875 261.242188 750.890625 C 261.242188 749.851562 260.84375 748.859375 260.105469 748.132812 Z M 149.457031 728.148438 C 147.929688 726.621094 145.464844 726.621094 143.953125 728.148438 L 143.953125 728.132812 L 123.945312 748.132812 C 122.433594 749.65625 122.433594 752.117188 123.945312 753.640625 L 143.953125 773.640625 C 144.707031 774.390625 145.707031 774.769531 146.699219 774.769531 C 147.703125 774.769531 148.6875 774.398438 149.457031 773.644531 C 150.976562 772.117188 150.976562 769.648438 149.457031 768.132812 L 132.199219 750.890625 L 149.457031 733.648438 C 150.976562 732.125 150.976562 729.65625 149.457031 728.148438 Z M 206.601562 730.273438 L 170.878906 766.003906 C 169.359375 767.515625 169.359375 769.988281 170.878906 771.507812 C 171.640625 772.269531 172.632812 772.644531 173.628906 772.644531 C 174.628906 772.644531 175.625 772.269531 176.382812 771.507812 L 212.113281 735.777344 C 213.628906 734.25 213.628906 731.792969 212.113281 730.273438 C 210.601562 728.753906 208.125 728.753906 206.601562 730.273438 " fill-opacity="1" fill-rule="nonzero"/>
      </g>
      <g clip-path="url(#98e0f1e67b)">
        <g clip-path="url(#f17f7ad67b)">
          <g clip-path="url(#e84300ac88)">
            <path fill="#5170ff" d="M 870.785156 134.082031 L 890.011719 156.695312 C 890.792969 157.601562 890.820312 158.917969 890.1875 159.851562 C 890.054688 160.046875 889.898438 160.230469 889.703125 160.382812 C 888.597656 161.3125 886.945312 161.175781 886 160.09375 L 873.566406 145.46875 C 874.851562 151.757812 875.609375 158.316406 875.824219 164.832031 C 876.40625 182.367188 873.160156 199.238281 866.109375 214.996094 C 863.316406 221.277344 860.066406 226.96875 856.597656 232.09375 C 840.699219 255.582031 819.675781 267.363281 810.140625 271.808594 C 808.84375 272.417969 807.261719 271.855469 806.664062 270.53125 C 806.054688 269.234375 806.621094 267.652344 807.941406 267.054688 C 819.023438 261.914062 846.398438 246.324219 861.316406 212.859375 C 873.414062 185.757812 871.328125 160.425781 868.273438 145.75 L 862.15625 164.386719 C 861.699219 165.761719 860.21875 166.5 858.832031 166.066406 C 857.460938 165.613281 856.71875 164.132812 857.152344 162.746094 L 866.304688 134.945312 C 866.601562 134.039062 867.363281 133.382812 868.289062 133.183594 C 869.21875 133.023438 870.171875 133.351562 870.785156 134.082031 Z M 870.785156 134.082031 " fill-opacity="1" fill-rule="nonzero"/>
          </g>
        </g>
      </g>
      <g fill="#5170ff" fill-opacity="1">
        <g transform="translate(667.408891, 85.649654)">
          <g>
            <path d="M 50.5 -41.640625 L 50.5 -33.375 L 41.875 -33.375 L 40.234375 -23.6875 L 48.28125 -23.6875 L 48.28125 -15.453125 L 38.875 -15.453125 L 36.265625 0 L 26.78125 0 L 29.390625 -15.453125 L 19.328125 -15.453125 L 16.703125 0 L 7.21875 0 L 9.84375 -15.453125 L 2.609375 -15.453125 L 2.609375 -23.6875 L 11.234375 -23.6875 L 12.84375 -33.375 L 4.796875 -33.375 L 4.796875 -41.640625 L 14.25 -41.640625 L 16.859375 -57.0625 L 26.34375 -57.0625 L 23.734375 -41.640625 L 33.796875 -41.640625 L 36.375 -57.0625 L 45.859375 -57.0625 L 43.28125 -41.640625 Z M 20.71875 -23.6875 L 30.75 -23.6875 L 32.390625 -33.375 L 22.328125 -33.375 Z M 20.71875 -23.6875 "/>
          </g>
        </g>
      </g>
      <g fill="#5170ff" fill-opacity="1">
        <g transform="translate(720.525366, 85.649654)">
          <g>
            <path d="M 45.75 -57.0625 L 45.75 -47.578125 L 29.28125 -47.578125 L 29.28125 0 L 18.03125 0 L 18.03125 -47.578125 L 1.5625 -47.578125 L 1.5625 -57.0625 Z M 45.75 -57.0625 "/>
          </g>
        </g>
      </g>
      <g fill="#5170ff" fill-opacity="1">
        <g transform="translate(766.460729, 85.649654)">
          <g>
            <path d="M 31.109375 0.8125 C 25.878906 0.8125 21.265625 -0.25 17.265625 -2.375 C 13.273438 -4.507812 10.144531 -7.769531 7.875 -12.15625 C 5.613281 -16.539062 4.484375 -22 4.484375 -28.53125 C 4.484375 -35.0625 5.613281 -40.519531 7.875 -44.90625 C 10.144531 -49.289062 13.273438 -52.550781 17.265625 -54.6875 C 21.265625 -56.820312 25.878906 -57.890625 31.109375 -57.890625 C 36.335938 -57.890625 40.941406 -56.828125 44.921875 -54.703125 C 48.898438 -52.578125 52.015625 -49.316406 54.265625 -44.921875 C 56.523438 -40.523438 57.65625 -35.0625 57.65625 -28.53125 C 57.65625 -22 56.523438 -16.535156 54.265625 -12.140625 C 52.015625 -7.742188 48.898438 -4.484375 44.921875 -2.359375 C 40.941406 -0.242188 36.335938 0.8125 31.109375 0.8125 Z M 31.109375 -8.984375 C 35.953125 -8.984375 39.644531 -10.535156 42.1875 -13.640625 C 44.738281 -16.753906 46.015625 -21.71875 46.015625 -28.53125 C 46.015625 -35.351562 44.738281 -40.320312 42.1875 -43.4375 C 39.644531 -46.5625 35.953125 -48.125 31.109375 -48.125 C 26.242188 -48.125 22.53125 -46.5625 19.96875 -43.4375 C 17.40625 -40.320312 16.125 -35.351562 16.125 -28.53125 C 16.125 -21.71875 17.40625 -16.753906 19.96875 -13.640625 C 22.53125 -10.535156 26.242188 -8.984375 31.109375 -8.984375 Z M 31.109375 -8.984375 "/>
          </g>
        </g>
      </g>
      <g fill="#5170ff" fill-opacity="1">
        <g transform="translate(828.631592, 85.649654)">
          <g>
            <path d="M 27.953125 -57.0625 C 37.210938 -57.0625 44.28125 -54.664062 49.15625 -49.875 C 54.039062 -45.09375 56.484375 -37.976562 56.484375 -28.53125 C 56.484375 -19.113281 54.039062 -12.003906 49.15625 -7.203125 C 44.28125 -2.398438 37.210938 0 27.953125 0 L 7.421875 0 L 7.421875 -57.0625 Z M 27.28125 -9.484375 C 33.164062 -9.484375 37.5625 -10.984375 40.46875 -13.984375 C 43.382812 -16.992188 44.84375 -21.84375 44.84375 -28.53125 C 44.84375 -35.21875 43.382812 -40.0625 40.46875 -43.0625 C 37.5625 -46.070312 33.164062 -47.578125 27.28125 -47.578125 L 18.703125 -47.578125 L 18.703125 -9.484375 Z M 27.28125 -9.484375 "/>
          </g>
        </g>
      </g>
      <g fill="#5170ff" fill-opacity="1">
        <g transform="translate(889.631629, 85.649654)">
          <g>
            <path d="M 31.109375 0.8125 C 25.878906 0.8125 21.265625 -0.25 17.265625 -2.375 C 13.273438 -4.507812 10.144531 -7.769531 7.875 -12.15625 C 5.613281 -16.539062 4.484375 -22 4.484375 -28.53125 C 4.484375 -35.0625 5.613281 -40.519531 7.875 -44.90625 C 10.144531 -49.289062 13.273438 -52.550781 17.265625 -54.6875 C 21.265625 -56.820312 25.878906 -57.890625 31.109375 -57.890625 C 36.335938 -57.890625 40.941406 -56.828125 44.921875 -54.703125 C 48.898438 -52.578125 52.015625 -49.316406 54.265625 -44.921875 C 56.523438 -40.523438 57.65625 -35.0625 57.65625 -28.53125 C 57.65625 -22 56.523438 -16.535156 54.265625 -12.140625 C 52.015625 -7.742188 48.898438 -4.484375 44.921875 -2.359375 C 40.941406 -0.242188 36.335938 0.8125 31.109375 0.8125 Z M 31.109375 -8.984375 C 35.953125 -8.984375 39.644531 -10.535156 42.1875 -13.640625 C 44.738281 -16.753906 46.015625 -21.71875 46.015625 -28.53125 C 46.015625 -35.351562 44.738281 -40.320312 42.1875 -43.4375 C 39.644531 -46.5625 35.953125 -48.125 31.109375 -48.125 C 26.242188 -48.125 22.53125 -46.5625 19.96875 -43.4375 C 17.40625 -40.320312 16.125 -35.351562 16.125 -28.53125 C 16.125 -21.71875 17.40625 -16.753906 19.96875 -13.640625 C 22.53125 -10.535156 26.242188 -8.984375 31.109375 -8.984375 Z M 31.109375 -8.984375 "/>
          </g>
        </g>
      </g>
      <g clip-path="url(#9e262ce260)">
        <g clip-path="url(#1258d3ed9f)">
          <g clip-path="url(#33095e2636)">
            <path fill="#8ac0c8" d="M 498.871094 808.535156 L 475.597656 812.996094 C 474.660156 813.183594 473.734375 812.683594 473.335938 811.875 C 473.25 811.707031 473.1875 811.527344 473.160156 811.332031 C 472.945312 810.199219 473.691406 809.105469 474.816406 808.875 L 489.867188 805.988281 C 484.992188 804.410156 480.136719 802.351562 475.527344 799.941406 C 463.117188 793.449219 452.671875 784.554688 444.5 773.460938 C 441.238281 769.046875 438.5625 764.550781 436.367188 760.125 C 426.304688 739.84375 426.390625 720.605469 427.054688 712.234375 C 427.140625 711.089844 428.15625 710.214844 429.308594 710.320312 C 430.449219 710.40625 431.328125 711.421875 431.21875 712.574219 C 430.433594 722.292969 430.496094 747.441406 447.871094 770.96875 C 461.9375 790.035156 480.355469 798.550781 491.75 802.199219 L 481.210938 790.621094 C 480.4375 789.765625 480.507812 788.445312 481.351562 787.652344 C 482.207031 786.875 483.527344 786.945312 484.320312 787.789062 L 500.03125 805.082031 C 500.546875 805.644531 500.703125 806.433594 500.476562 807.152344 C 500.21875 807.867188 499.617188 808.398438 498.871094 808.535156 Z M 498.871094 808.535156 " fill-opacity="1" fill-rule="nonzero"/>
          </g>
        </g>
      </g>
      <g clip-path="url(#9790b31465)">
        <g transform="matrix(1, 0, 0, 1, 575, 756)">
          <g clip-path="url(#fb2284d5c7)">
            <g fill="#8ac0c8" fill-opacity="1">
              <g transform="translate(0.637842, 78.111329)">
                <g>
                  <path d="M 46.484375 -38.328125 L 46.484375 -30.703125 L 38.546875 -30.703125 L 37.03125 -21.796875 L 44.4375 -21.796875 L 44.4375 -14.21875 L 35.78125 -14.21875 L 33.375 0 L 24.640625 0 L 27.046875 -14.21875 L 17.78125 -14.21875 L 15.375 0 L 6.640625 0 L 9.046875 -14.21875 L 2.40625 -14.21875 L 2.40625 -21.796875 L 10.34375 -21.796875 L 11.8125 -30.703125 L 4.421875 -30.703125 L 4.421875 -38.328125 L 13.109375 -38.328125 L 15.515625 -52.515625 L 24.25 -52.515625 L 21.84375 -38.328125 L 31.109375 -38.328125 L 33.484375 -52.515625 L 42.203125 -52.515625 L 39.828125 -38.328125 Z M 19.078125 -21.796875 L 28.296875 -21.796875 L 29.8125 -30.703125 L 20.546875 -30.703125 Z M 19.078125 -21.796875 "/>
                </g>
              </g>
            </g>
            <g fill="#8ac0c8" fill-opacity="1">
              <g transform="translate(49.52512, 78.111329)">
                <g>
                  <path d="M 40.125 -52.515625 L 40.125 -43.828125 L 17.203125 -43.828125 L 17.203125 -29.921875 L 38 -29.921875 L 38 -21.34375 L 17.203125 -21.34375 L 17.203125 0 L 6.828125 0 L 6.828125 -52.515625 Z M 40.125 -52.515625 "/>
                </g>
              </g>
            </g>
            <g fill="#8ac0c8" fill-opacity="1">
              <g transform="translate(91.982697, 78.111329)">
                <g>
                  <path d="M 17.203125 0 L 6.828125 0 L 6.828125 -52.515625 L 17.203125 -52.515625 Z M 17.203125 0 "/>
                </g>
              </g>
            </g>
            <g fill="#8ac0c8" fill-opacity="1">
              <g transform="translate(116.049175, 78.111329)">
                <g>
                  <path d="M 11.53125 0 L 0.890625 0 L 16.453125 -27.015625 L 1.65625 -52.515625 L 12.671875 -52.515625 L 23.5625 -33.6875 L 24.46875 -33.6875 L 35.53125 -52.515625 L 46.015625 -52.515625 L 31.21875 -27.015625 L 46.765625 0 L 35.78125 0 L 24.109375 -20.265625 L 23.203125 -20.265625 Z M 11.53125 0 "/>
                </g>
              </g>
            </g>
          </g>
        </g>
      </g>
    </g>
  </g>
</svg>
